<?xml version="1.0" encoding="utf-8"?>
<!-- Generator: Adobe Illustrator 19.0.0, SVG Export Plug-In . SVG Version: 6.00 Build 0)  -->
<svg version="1.1" id="Calque_1" xmlns="http://www.w3.org/2000/svg" xmlns:xlink="http://www.w3.org/1999/xlink" x="0px" y="0px"
	 viewBox="0 0 300 300" style="enable-background:new 0 0 300 300;" xml:space="preserve">
<style type="text/css">
	.st0{fill:none;}
	.st1{enable-background:new    ;}
	.st2{fill:#20386E;}
</style>
<rect x="152.7" y="148.3" class="st0" width="98" height="55"/>
<g class="st1">
	<path class="st2" d="M102.3,175.8v-37.3h11.2c4.3,0,8,1.5,11,4.6c3,3.1,4.5,7,4.5,11.8v4.6c0,4.8-1.5,8.7-4.5,11.8
		c-3,3.1-6.7,4.6-11,4.6H102.3z M103.7,139.9v34.6h9.8c3.9,0,7.3-1.4,10-4.3c2.8-2.8,4.1-6.4,4.1-10.7v-4.6c0-4.3-1.4-7.8-4.1-10.7
		c-2.8-2.8-6.1-4.3-10-4.3H103.7z"/>
	<path class="st2" d="M146.9,176.4c-3.3,0-6.1-1.3-8.4-3.8c-2.3-2.5-3.4-5.7-3.4-9.6v-1.6c0-4,1.1-7.3,3.4-9.9
		c2.3-2.6,5.1-3.9,8.5-3.9c3.1,0,5.6,1,7.4,3c1.8,2,2.8,4.8,2.8,8.3v2.1h-20.7v0.3v1.6c0,3.4,1,6.2,2.9,8.5c1.9,2.3,4.4,3.4,7.5,3.4
		c1.7,0,3.3-0.3,4.8-0.9c1.5-0.6,2.8-1.4,3.8-2.5l0.8,1.1c-1,1.1-2.3,2-3.8,2.7C150.8,176,149,176.4,146.9,176.4z M147,149
		c-2.9,0-5.3,1-7.1,3c-1.9,2-2.9,4.5-3.1,7.6l0.1,0.2h19v-0.8c0-2.9-0.8-5.2-2.4-7.1C151.9,149.9,149.7,149,147,149z"/>
	<path class="st2" d="M170.4,170l1.3,3.7h0.2l1.3-3.7l8.6-21.9h1.5l-10.9,27.7l0,0h-1.3l-10.9-27.7h1.5L170.4,170z"/>
</g>
</svg>
