<?xml version="1.0" encoding="utf-8"?>
<!-- Generator: Adobe Illustrator 19.0.0, SVG Export Plug-In . SVG Version: 6.00 Build 0)  -->
<svg version="1.1" id="Calque_1" xmlns="http://www.w3.org/2000/svg" xmlns:xlink="http://www.w3.org/1999/xlink" x="0px" y="0px"
	 viewBox="0 0 300 300" style="enable-background:new 0 0 300 300;" xml:space="preserve">
<style type="text/css">
	.st0{fill:none;}
	.st1{enable-background:new    ;}
	.st2{fill:#010202;}
</style>
<rect x="152.7" y="148.3" class="st0" width="98" height="55"/>
<rect x="153.4" y="189.1" class="st0" width="110.8" height="48.5"/>
<rect x="125.9" y="233.8" class="st0" width="147.6" height="26.2"/>
<g class="st1">
	<path class="st2" d="M118.6,146h-6.3l-1.4,4h-1.2l5.3-14.2h1.1l5.2,14.2h-1.2L118.6,146z M112.7,145h5.5l-2.7-7.5h-0.1L112.7,145z"
		/>
	<path class="st2" d="M134.6,148.1c-0.3,0.5-0.9,1-1.8,1.4c-0.9,0.4-1.9,0.7-3.2,0.7c-1.7,0-3-0.6-4.1-1.7c-1.1-1.1-1.6-2.6-1.6-4.4
		v-2.6c0-1.8,0.5-3.2,1.5-4.3c1-1.1,2.3-1.7,4-1.7c1.6,0,2.8,0.4,3.7,1.2c0.9,0.8,1.4,1.8,1.3,3.1l0,0.1h-1.1c0-1-0.3-1.8-1-2.4
		c-0.7-0.6-1.7-1-2.9-1c-1.3,0-2.3,0.5-3.1,1.4c-0.8,0.9-1.2,2.1-1.2,3.6v2.6c0,1.5,0.4,2.7,1.2,3.7s1.9,1.4,3.2,1.4
		c1,0,1.8-0.1,2.5-0.4s1.1-0.6,1.3-1v-3.6h-3.9v-1h5V148.1z"/>
	<path class="st2" d="M147,143.1h-6.4v5.9h7.4v1h-8.6v-14.2h8.6v1h-7.4v5.3h6.4V143.1z"/>
	<path class="st2" d="M162.1,150h-1.2l-8.2-12.2l-0.1,0V150h-1.2v-14.2h1.2l8.2,12.1l0.1,0v-12.1h1.2V150z"/>
	<path class="st2" d="M176.6,145.6L176.6,145.6c0,1.5-0.4,2.6-1.4,3.4s-2.2,1.3-3.7,1.3c-1.6,0-2.9-0.6-3.9-1.7s-1.5-2.6-1.5-4.4
		v-2.3c0-1.8,0.5-3.3,1.5-4.4s2.3-1.7,3.9-1.7c1.6,0,2.8,0.4,3.7,1.2c0.9,0.8,1.4,1.9,1.4,3.4l0,0.1h-1.1c0-1.1-0.4-2-1.1-2.7
		s-1.7-1-2.9-1c-1.3,0-2.3,0.5-3,1.4s-1.1,2.2-1.1,3.7v2.3c0,1.5,0.4,2.8,1.1,3.7s1.8,1.4,3,1.4c1.2,0,2.2-0.3,2.9-0.9
		s1.1-1.5,1.1-2.7H176.6z"/>
	<path class="st2" d="M185,143.7l4.4-7.9h1.4l-5.2,9v5.2h-1.2v-5.2l-5.2-9h1.4L185,143.7z"/>
</g>
</svg>
