<?xml version="1.0" encoding="utf-8"?>
<!-- Generator: Adobe Illustrator 19.0.0, SVG Export Plug-In . SVG Version: 6.00 Build 0)  -->
<svg version="1.1" id="Calque_1" xmlns="http://www.w3.org/2000/svg" xmlns:xlink="http://www.w3.org/1999/xlink" x="0px" y="0px"
	 viewBox="0 0 300 300" style="enable-background:new 0 0 300 300;" xml:space="preserve">
<style type="text/css">
	.st0{fill:none;}
	.st1{enable-background:new    ;}
	.st2{fill:#055C74;}
</style>
<rect x="153.4" y="189.1" class="st0" width="110.8" height="48.5"/>
<g class="st1">
	<path class="st2" d="M142.9,127.7v24.8c0,4.1-1.2,7.3-3.6,9.6s-5.5,3.5-9.3,3.5c-3.8,0-6.9-1.2-9.3-3.5s-3.6-5.5-3.6-9.6v-24.8h1.4
		v24.8c0,3.5,1.1,6.4,3.2,8.5c2.2,2.1,4.9,3.2,8.2,3.2c3.3,0,6.1-1.1,8.2-3.2c2.2-2.1,3.2-5,3.2-8.5v-24.8H142.9z"/>
	<path class="st2" d="M153.3,137.3l0.2,5.6c0.9-1.9,2.1-3.4,3.7-4.5c1.6-1.1,3.6-1.6,6-1.6c3.1,0,5.3,1,6.9,2.9
		c1.5,1.9,2.3,4.9,2.3,9.1V165H171v-16.4c0-3.8-0.7-6.6-2.1-8.1c-1.4-1.6-3.3-2.4-5.7-2.4c-2.9,0-5.2,0.8-6.7,2.5s-2.5,3.9-3,6.5
		V165h-1.4v-14.2h-0.1c0-0.3,0-0.7,0-1c0-0.3,0-0.7,0.1-1v-11.5H153.3z"/>
	<path class="st2" d="M182.9,128.5h-1.4V125h1.4V128.5z M182.9,165h-1.4v-27.7h1.4V165z"/>
	<path class="st2" d="M195,129.8v7.5h6.9v1.4H195v19.2c0,2.3,0.4,3.9,1.2,4.9c0.8,1,1.8,1.4,3.1,1.4c0.5,0,0.9,0,1.2-0.1
		s0.9-0.1,1.5-0.2l0.3,1.3c-0.4,0.1-0.9,0.2-1.3,0.3c-0.5,0.1-1,0.1-1.6,0.1c-1.9,0-3.3-0.6-4.3-1.8c-1-1.2-1.5-3.2-1.5-5.9v-19.2
		h-5.2v-1.4h5.2v-7.5H195z"/>
</g>
<rect x="125.9" y="233.8" class="st0" width="147.6" height="26.2"/>
</svg>
