<?xml version="1.0" encoding="utf-8"?>
<!-- Generator: Adobe Illustrator 19.0.0, SVG Export Plug-In . SVG Version: 6.00 Build 0)  -->
<svg version="1.1" id="Calque_1" xmlns="http://www.w3.org/2000/svg" xmlns:xlink="http://www.w3.org/1999/xlink" x="0px" y="0px"
	 viewBox="0 0 300 300" style="enable-background:new 0 0 300 300;" xml:space="preserve">
<style type="text/css">
	.st0{fill:url(#SVGID_1_);}
	.st1{fill:url(#SVGID_2_);}
	.st2{fill:url(#SVGID_3_);}
	.st3{fill:url(#SVGID_4_);}
	.st4{fill:url(#SVGID_5_);}
	.st5{fill:url(#SVGID_6_);}
</style>
<linearGradient id="SVGID_1_" gradientUnits="userSpaceOnUse" x1="273.1229" y1="241.39" x2="302.4557" y2="241.39" gradientTransform="matrix(1 0 0 -1 -147.66 329.04)">
	<stop  offset="0.315" style="stop-color:#272C5D"/>
	<stop  offset="0.3939" style="stop-color:#153962"/>
	<stop  offset="0.4787" style="stop-color:#024669"/>
	<stop  offset="0.5676" style="stop-color:#05516F"/>
	<stop  offset="0.6611" style="stop-color:#045772"/>
	<stop  offset="0.7622" style="stop-color:#035B73"/>
	<stop  offset="0.885" style="stop-color:#055C74"/>
	<stop  offset="1" style="stop-color:#055C74"/>
</linearGradient>
<path class="st0" d="M154.8,92.1l-0.1-17.9L125.5,88c3.8,4.2,7.1,8.5,9.9,13.2L154.8,92.1z"/>
<linearGradient id="SVGID_2_" gradientUnits="userSpaceOnUse" x1="228.0866" y1="228.6796" x2="283.0635" y2="228.6796" gradientTransform="matrix(1 0 0 -1 -147.66 329.04)">
	<stop  offset="0.315" style="stop-color:#272C5D"/>
	<stop  offset="0.3939" style="stop-color:#153962"/>
	<stop  offset="0.4787" style="stop-color:#024669"/>
	<stop  offset="0.5676" style="stop-color:#05516F"/>
	<stop  offset="0.6611" style="stop-color:#045772"/>
	<stop  offset="0.7622" style="stop-color:#035B73"/>
	<stop  offset="0.885" style="stop-color:#055C74"/>
	<stop  offset="1" style="stop-color:#055C74"/>
</linearGradient>
<path class="st1" d="M111,112.7l24.4-11.5c-2.8-4.8-6.2-9.1-9.9-13.2l-45,21.2C90.6,110.1,101.3,113.5,111,112.7z"/>
<linearGradient id="SVGID_3_" gradientUnits="userSpaceOnUse" x1="217.3592" y1="196.99" x2="260.1592" y2="196.99" gradientTransform="matrix(1 0 0 -1 -147.66 329.04)">
	<stop  offset="0.315" style="stop-color:#272C5D"/>
	<stop  offset="0.3939" style="stop-color:#153962"/>
	<stop  offset="0.4787" style="stop-color:#024669"/>
	<stop  offset="0.5676" style="stop-color:#05516F"/>
	<stop  offset="0.6611" style="stop-color:#045772"/>
	<stop  offset="0.7622" style="stop-color:#035B73"/>
	<stop  offset="0.885" style="stop-color:#055C74"/>
	<stop  offset="1" style="stop-color:#055C74"/>
</linearGradient>
<path class="st2" d="M96.2,119.6l14.8-6.9c-9.6,0.8-20.3-2.5-30.5-3.5l-10.7,5.1l40.7,40.7c1.3-6.5,1.8-12.9,2.1-19.4L96.2,119.6z"
	/>
<linearGradient id="SVGID_4_" gradientUnits="userSpaceOnUse" x1="273.56" y1="139.097" x2="315.9077" y2="139.097" gradientTransform="matrix(1 0 0 -1 -147.66 329.04)">
	<stop  offset="0.315" style="stop-color:#272C5D"/>
	<stop  offset="0.3939" style="stop-color:#153962"/>
	<stop  offset="0.4787" style="stop-color:#024669"/>
	<stop  offset="0.5676" style="stop-color:#05516F"/>
	<stop  offset="0.6611" style="stop-color:#045772"/>
	<stop  offset="0.7622" style="stop-color:#035B73"/>
	<stop  offset="0.885" style="stop-color:#055C74"/>
	<stop  offset="1" style="stop-color:#055C74"/>
</linearGradient>
<path class="st3" d="M157.2,179.4l-12.4-12.2c-6.3-0.2-12.5,1.8-18.9,3.3l42.3,42.3C162.3,202.6,157.7,192.2,157.2,179.4z"/>
<linearGradient id="SVGID_5_" gradientUnits="userSpaceOnUse" x1="304.8467" y1="141.84" x2="324.8334" y2="141.84" gradientTransform="matrix(1 0 0 -1 -147.66 329.04)">
	<stop  offset="0.315" style="stop-color:#272C5D"/>
	<stop  offset="0.3939" style="stop-color:#153962"/>
	<stop  offset="0.4787" style="stop-color:#024669"/>
	<stop  offset="0.5676" style="stop-color:#05516F"/>
	<stop  offset="0.6611" style="stop-color:#045772"/>
	<stop  offset="0.7622" style="stop-color:#035B73"/>
	<stop  offset="0.885" style="stop-color:#055C74"/>
	<stop  offset="1" style="stop-color:#055C74"/>
</linearGradient>
<path class="st4" d="M177.2,221.7l-1.6-68.9l-15.9,0.6l0.8,29.2l-3.2-3.2c0.5,12.8,5.1,23.3,11.1,33.4L177.2,221.7z"/>
<linearGradient id="SVGID_6_" gradientUnits="userSpaceOnUse" x1="258.06" y1="176.04" x2="292.46" y2="176.04" gradientTransform="matrix(1 0 0 -1 -147.66 329.04)">
	<stop  offset="0.315" style="stop-color:#272C5D"/>
	<stop  offset="0.3939" style="stop-color:#153962"/>
	<stop  offset="0.4787" style="stop-color:#024669"/>
	<stop  offset="0.5676" style="stop-color:#05516F"/>
	<stop  offset="0.6611" style="stop-color:#045772"/>
	<stop  offset="0.7622" style="stop-color:#035B73"/>
	<stop  offset="0.885" style="stop-color:#055C74"/>
	<stop  offset="1" style="stop-color:#055C74"/>
</linearGradient>
<path class="st5" d="M144.8,167.2l-32.3-31.6c-0.2,6.5-0.8,12.9-2.1,19.4l15.5,15.5C132.3,169,138.4,167,144.8,167.2z"/>
</svg>
